# Blender v2.92.0 OBJ File: 'Allensville_mod.blend'
# www.blender.org
mtllib wall3.mtl
o wall3_mesh_z_up.002
v 6.108179 2.272654 0.009298
v 5.349472 1.414692 0.010544
v 6.108179 2.272654 0.009298
v 5.349472 1.414692 0.010544
v 6.301916 2.272654 0.009298
v 5.543209 1.414692 0.010544
v 8.365622 2.225400 0.022116
v 6.108179 2.272654 0.009298
v 8.365622 2.050079 0.022116
v 6.108179 2.097333 0.009298
v 6.108179 2.272654 0.009298
v 5.349472 1.414692 0.010544
v 6.301916 2.272654 0.009298
v 5.543209 1.414692 0.010544
v 8.365622 2.225400 0.022116
v 6.108179 2.272654 0.009298
v 8.365622 2.050079 0.022116
v 6.108179 2.097333 0.009298
v 6.106535 2.273074 0.588434
v 5.347828 1.415112 0.589680
v 6.300272 2.273074 0.588434
v 5.541564 1.415112 0.589680
v 8.363977 2.225820 0.601252
v 6.106535 2.273074 0.588434
v 8.363977 2.050499 0.601252
v 6.106535 2.097753 0.588434
vn 0.0000 0.0000 1.0000
vn 1.0000 0.0000 0.0028
vn -0.7491 0.6624 -0.0026
vn 0.0000 0.0015 1.0000
vn -0.0057 0.0000 1.0000
vn -0.0209 -0.9998 0.0007
vn 0.0000 -1.0000 0.0007
vn 0.7491 -0.6624 0.0026
vn -1.0000 0.0000 -0.0028
vn 0.0209 0.9998 -0.0007
vn 0.0000 1.0000 -0.0007
usemtl Default_OBJ
s off
f 3//1 4//1 2//1 1//1
f 7//1 8//1 16//1 15//1
f 8//1 10//1 18//1 16//1
f 17//2 15//2 23//2 25//2
f 11//3 12//3 20//3 19//3
f 5//1 1//1 11//1 13//1
f 1//1 2//1 12//1 11//1
f 9//1 7//1 15//1 17//1
f 10//1 9//1 17//1 18//1
f 2//1 6//1 14//1 12//1
f 6//1 5//1 13//1 14//1
f 19//4 20//4 22//4 21//4
f 23//5 24//5 26//5 25//5
f 18//6 17//6 25//6 26//6
f 12//7 14//7 22//7 20//7
f 14//8 13//8 21//8 22//8
f 16//9 18//9 26//9 24//9
f 15//10 16//10 24//10 23//10
f 13//11 11//11 19//11 21//11
l 3 8
o wall3.001_mesh_z_up.008
v 5.105052 1.547018 0.004521
v 4.653541 0.500210 0.001191
v 5.349472 1.414692 0.010544
v 5.105052 1.547018 0.004521
v 5.349472 1.414692 0.010544
v 5.105052 1.547018 0.004521
v 5.349472 1.414692 0.010544
v 4.737128 1.547018 0.004521
v 4.981548 1.414692 0.010544
v 5.105052 1.572045 0.554441
v 5.349472 1.439718 0.560463
v 4.737128 1.572045 0.554441
v 4.981548 1.439718 0.560463
v 4.854155 0.500210 0.001191
v 4.937742 1.547018 0.004521
v 4.653541 0.498416 0.565078
v 4.737128 1.545224 0.568408
v 4.854155 0.498416 0.565078
v 4.937742 1.545224 0.568408
vn 0.0000 0.0000 1.0000
vn 0.4765 0.8783 -0.0400
vn 0.0000 -0.0455 -0.9990
vn 0.0000 0.9990 -0.0455
vn -0.4765 -0.8783 0.0400
vn 0.0000 -0.9990 0.0455
vn 0.0000 -0.0032 1.0000
vn 0.0000 0.0032 -1.0000
vn 0.0000 -1.0000 -0.0032
vn 0.9968 -0.0796 -0.0003
vn 0.0000 1.0000 0.0032
vn -0.9968 0.0796 0.0003
usemtl Default_OBJ
s off
f 27//12 29//12 31//12 30//12
f 30//12 31//12 33//12 32//12
f 35//13 34//13 38//13 39//13
f 36//14 37//14 39//14 38//14
f 33//15 35//15 39//15 37//15
f 32//16 33//16 37//16 36//16
f 34//17 32//17 36//17 38//17
f 28//18 40//18 41//18 34//18
f 42//19 43//19 45//19 44//19
f 34//20 41//20 45//20 43//20
f 28//21 34//21 43//21 42//21
f 40//22 28//22 42//22 44//22
f 41//23 40//23 44//23 45//23
